<svg xmlns="http://www.w3.org/2000/svg" width="32" height="32" viewBox="0 0 32 32"><g fill="#14110f" stroke="#14110f" stroke-width="3.2" stroke-linejoin="round"><rect x="9" y="11.5" width="16.4" height="14" rx="5"/><circle cx="11.8" cy="12.6" r="2.7"/><circle cx="15.8" cy="11.6" r="2.8"/><circle cx="19.9" cy="11.8" r="2.8"/><circle cx="23.3" cy="13.4" r="2.5"/><rect x="10.6" y="25" width="13.2" height="5.2" rx="1.6"/></g><g fill="#fbf9f5"><rect x="9" y="11.5" width="16.4" height="14" rx="5"/><circle cx="11.8" cy="12.6" r="2.7"/><circle cx="15.8" cy="11.6" r="2.8"/><circle cx="19.9" cy="11.8" r="2.8"/><circle cx="23.3" cy="13.4" r="2.5"/><rect x="10.6" y="25" width="13.2" height="5.2" rx="1.6"/></g><g fill="none" stroke="#14110f" stroke-width="1.3" stroke-linecap="round"><path d="M13.8 12.4v2.4M17.9 12v2.4M21.8 12.8v2.2M11.4 17.2h7.6a1.9 1.9 0 0 1 0 3.8h-7.6M10.6 25h13.2"/></g></svg>
